<?xml version="1.0" standalone="no"?>
<svg
  width="600"
  height="600"
  viewBox="0 0 600 600"
  xmlns="http://www.w3.org/2000/svg"
>
  <g transform="translate(300,300)">
    <path d="M75.5,-104.9C100.2,-101.6,124.3,-84.7,137.9,-61.1C151.6,-37.6,155,-7.4,159.4,29.1C163.8,65.6,169.2,108.4,146.5,117.3C123.8,126.1,73,101,39.6,90.5C6.2,80,-9.9,84.1,-49.2,102.4C-88.6,120.6,-151.2,153,-193.8,145C-236.3,137,-258.7,88.7,-254.1,43.6C-249.6,-1.4,-218,-43.3,-185.6,-72.5C-153.2,-101.6,-119.8,-118.1,-88.7,-118.4C-57.7,-118.7,-28.8,-102.9,-1.7,-100.2C25.4,-97.5,50.8,-108.1,75.5,-104.9Z" fill="#f8f3e5" />
  </g>
</svg>
  