<?xml version="1.0" standalone="no"?><svg xmlns="http://www.w3.org/2000/svg" viewBox="0 0 1440 320"><path fill="#fff" fill-opacity="1" d="M0,64L34.3,53.3C68.6,43,137,21,206,58.7C274.3,96,343,192,411,234.7C480,277,549,267,617,240C685.7,213,754,171,823,138.7C891.4,107,960,85,1029,90.7C1097.1,96,1166,128,1234,170.7C1302.9,213,1371,267,1406,293.3L1440,320L1440,0L1405.7,0C1371.4,0,1303,0,1234,0C1165.7,0,1097,0,1029,0C960,0,891,0,823,0C754.3,0,686,0,617,0C548.6,0,480,0,411,0C342.9,0,274,0,206,0C137.1,0,69,0,34,0L0,0Z"></path></svg>